<mxfile host="drawio-plugin" modified="2022-11-23T03:34:19.837Z" agent="5.0 (Windows NT 6.2; Win64; x64) AppleWebKit/537.36 (KHTML, like Gecko) Chrome/98.0.4758.102 Safari/537.36" etag="oXuJgINscIu_IbdJvfLX" version="15.5.4" type="embed"><diagram id="dBkBYF7SJWNCpU3SG8JY" name="Page-1"><mxGraphModel dx="788" dy="416" grid="1" gridSize="10" guides="1" tooltips="1" connect="1" arrows="1" fold="1" page="1" pageScale="1" pageWidth="850" pageHeight="1100" math="0" shadow="0"><root><mxCell id="0"/><mxCell id="1" parent="0"/><mxCell id="2" value="&lt;font size=&quot;3&quot;&gt;AIPlayer turn&lt;/font&gt;" style="ellipse;whiteSpace=wrap;html=1;" parent="1" vertex="1"><mxGeometry x="60" y="40" width="120" height="80" as="geometry"/></mxCell><mxCell id="3" value="&lt;font style=&quot;font-size: 14px&quot;&gt;:AIPlayer&lt;/font&gt;" style="shape=umlLifeline;perimeter=lifelinePerimeter;whiteSpace=wrap;html=1;container=1;collapsible=0;recursiveResize=0;outlineConnect=0;fontSize=24;" parent="1" vertex="1"><mxGeometry x="270" y="60" width="90" height="580" as="geometry"/></mxCell><mxCell id="4" value="" style="html=1;points=[];perimeter=orthogonalPerimeter;fontSize=14;" parent="3" vertex="1"><mxGeometry x="40" y="80" width="10" height="370" as="geometry"/></mxCell><mxCell id="17" value="getPlacementEventOn()" style="edgeStyle=orthogonalEdgeStyle;html=1;align=left;spacingLeft=2;endArrow=block;rounded=0;entryX=0.817;entryY=0.005;entryDx=0;entryDy=0;entryPerimeter=0;" edge="1" target="27" parent="3"><mxGeometry relative="1" as="geometry"><mxPoint x="53" y="120" as="sourcePoint"/><Array as="points"><mxPoint x="85" y="120"/><mxPoint x="85" y="131"/></Array><mxPoint x="59.999999999999886" y="130.0000000000001" as="targetPoint"/></mxGeometry></mxCell><mxCell id="23" value="getValidWords()" style="edgeStyle=orthogonalEdgeStyle;html=1;align=left;spacingLeft=2;endArrow=block;rounded=0;entryX=1.076;entryY=0.008;entryDx=0;entryDy=0;entryPerimeter=0;" edge="1" target="28" parent="3"><mxGeometry relative="1" as="geometry"><mxPoint x="60" y="160" as="sourcePoint"/><Array as="points"><mxPoint x="90" y="160"/><mxPoint x="90" y="181"/></Array><mxPoint x="64.99999999999989" y="180.0000000000001" as="targetPoint"/></mxGeometry></mxCell><mxCell id="27" value="" style="html=1;points=[];perimeter=orthogonalPerimeter;" vertex="1" parent="3"><mxGeometry x="45" y="130" width="10" height="240" as="geometry"/></mxCell><mxCell id="28" value="" style="html=1;points=[];perimeter=orthogonalPerimeter;" vertex="1" parent="3"><mxGeometry x="50" y="180" width="10" height="70" as="geometry"/></mxCell><mxCell id="29" value="" style="html=1;points=[];perimeter=orthogonalPerimeter;" vertex="1" parent="3"><mxGeometry x="55" y="220" width="10" height="20" as="geometry"/></mxCell><mxCell id="30" value="getNRandomPermutations()" style="edgeStyle=orthogonalEdgeStyle;html=1;align=left;spacingLeft=2;endArrow=block;rounded=0;entryX=1;entryY=0;" edge="1" target="29" parent="3"><mxGeometry relative="1" as="geometry"><mxPoint x="60" y="200" as="sourcePoint"/><Array as="points"><mxPoint x="90" y="200"/></Array></mxGeometry></mxCell><mxCell id="31" value="" style="html=1;points=[];perimeter=orthogonalPerimeter;" vertex="1" parent="3"><mxGeometry x="50" y="280" width="10" height="10" as="geometry"/></mxCell><mxCell id="32" value="transferTilesMatchingWord()" style="edgeStyle=orthogonalEdgeStyle;html=1;align=left;spacingLeft=2;endArrow=block;rounded=0;entryX=1;entryY=0;" edge="1" target="31" parent="3"><mxGeometry relative="1" as="geometry"><mxPoint x="55" y="260" as="sourcePoint"/><Array as="points"><mxPoint x="85" y="260"/></Array></mxGeometry></mxCell><mxCell id="50" value="[found word]" style="text;strokeColor=none;fillColor=none;align=left;verticalAlign=top;spacingLeft=4;spacingRight=4;overflow=hidden;rotatable=0;points=[[0,0.5],[1,0.5]];portConstraint=eastwest;fontSize=11;" vertex="1" parent="3"><mxGeometry x="-40" y="410" width="70" height="26" as="geometry"/></mxCell><mxCell id="52" value="[else]" style="text;strokeColor=none;fillColor=none;align=left;verticalAlign=top;spacingLeft=4;spacingRight=4;overflow=hidden;rotatable=0;points=[[0,0.5],[1,0.5]];portConstraint=eastwest;fontSize=11;" vertex="1" parent="3"><mxGeometry x="-40" y="484" width="70" height="26" as="geometry"/></mxCell><mxCell id="47" value="alt" style="shape=umlFrame;whiteSpace=wrap;html=1;fontSize=11;" vertex="1" parent="3"><mxGeometry x="-38" y="369" width="528" height="200" as="geometry"/></mxCell><mxCell id="48" value="" style="line;strokeWidth=1;fillColor=none;align=left;verticalAlign=middle;spacingTop=-1;spacingLeft=3;spacingRight=3;rotatable=0;labelPosition=right;points=[];portConstraint=eastwest;fontSize=11;" vertex="1" parent="3"><mxGeometry x="-40" y="476" width="530" height="8" as="geometry"/></mxCell><mxCell id="53" value="" style="html=1;points=[];perimeter=orthogonalPerimeter;fontSize=11;" vertex="1" parent="3"><mxGeometry x="45" y="410" width="10" height="40" as="geometry"/></mxCell><mxCell id="54" value="doPlacementEvent()" style="edgeStyle=orthogonalEdgeStyle;html=1;align=left;spacingLeft=2;endArrow=block;rounded=0;entryX=1;entryY=0;fontSize=11;" edge="1" target="53" parent="3"><mxGeometry relative="1" as="geometry"><mxPoint x="56" y="390" as="sourcePoint"/><Array as="points"><mxPoint x="86" y="390"/></Array></mxGeometry></mxCell><mxCell id="56" value="doDiscardEvent()" style="edgeStyle=orthogonalEdgeStyle;html=1;align=left;spacingLeft=2;endArrow=block;rounded=0;entryX=1;entryY=0;fontSize=11;" edge="1" parent="3" target="55"><mxGeometry relative="1" as="geometry"><mxPoint x="55" y="490.0000000000001" as="sourcePoint"/><Array as="points"><mxPoint x="85" y="490"/></Array></mxGeometry></mxCell><mxCell id="60" value="handleControllerEvent()" style="html=1;verticalAlign=bottom;endArrow=block;rounded=0;fontSize=11;" edge="1" parent="3"><mxGeometry width="80" relative="1" as="geometry"><mxPoint x="61" y="549" as="sourcePoint"/><mxPoint x="470.5" y="549" as="targetPoint"/></mxGeometry></mxCell><mxCell id="62" value="" style="html=1;points=[];perimeter=orthogonalPerimeter;fontSize=11;" vertex="1" parent="3"><mxGeometry x="40" y="480" width="10" height="70" as="geometry"/></mxCell><mxCell id="55" value="" style="html=1;points=[];perimeter=orthogonalPerimeter;fontSize=11;" vertex="1" parent="3"><mxGeometry x="45" y="510" width="10" height="40" as="geometry"/></mxCell><mxCell id="11" value="&lt;font style=&quot;font-size: 14px&quot;&gt;:Board&lt;/font&gt;" style="shape=umlLifeline;perimeter=lifelinePerimeter;whiteSpace=wrap;html=1;container=1;collapsible=0;recursiveResize=0;outlineConnect=0;fontSize=24;" vertex="1" parent="1"><mxGeometry x="570" y="60" width="90" height="580" as="geometry"/></mxCell><mxCell id="13" value="" style="html=1;points=[];perimeter=orthogonalPerimeter;" vertex="1" parent="11"><mxGeometry x="40" y="80" width="10" height="20" as="geometry"/></mxCell><mxCell id="35" value="" style="html=1;points=[];perimeter=orthogonalPerimeter;" vertex="1" parent="11"><mxGeometry x="40" y="300" width="10" height="20" as="geometry"/></mxCell><mxCell id="14" value="boardEmpty()" style="html=1;verticalAlign=bottom;endArrow=block;entryX=0;entryY=0;rounded=0;exitX=0.9;exitY=0.003;exitDx=0;exitDy=0;exitPerimeter=0;" edge="1" target="13" parent="1" source="4"><mxGeometry relative="1" as="geometry"><mxPoint x="330" y="120" as="sourcePoint"/></mxGeometry></mxCell><mxCell id="15" value="boolean" style="html=1;verticalAlign=bottom;endArrow=open;dashed=1;endSize=8;exitX=0;exitY=0.95;rounded=0;" edge="1" source="13" parent="1" target="4"><mxGeometry relative="1" as="geometry"><mxPoint x="330" y="196" as="targetPoint"/></mxGeometry></mxCell><mxCell id="37" value="boolean" style="html=1;verticalAlign=bottom;endArrow=open;dashed=1;endSize=8;exitX=0;exitY=0.95;rounded=0;" edge="1" source="35" parent="1" target="27"><mxGeometry relative="1" as="geometry"><mxPoint x="540" y="436" as="targetPoint"/></mxGeometry></mxCell><mxCell id="40" value="loop" style="shape=umlFrame;whiteSpace=wrap;html=1;" vertex="1" parent="1"><mxGeometry x="130" y="320" width="500" height="110" as="geometry"/></mxCell><mxCell id="41" value="break" style="shape=umlFrame;whiteSpace=wrap;html=1;" vertex="1" parent="1"><mxGeometry x="295" y="390" width="335" height="40" as="geometry"/></mxCell><mxCell id="43" value="isValidPlacement() == true" style="text;align=center;fontStyle=0;verticalAlign=middle;spacingLeft=3;spacingRight=3;strokeColor=none;rotatable=0;points=[[0,0.5],[1,0.5]];portConstraint=eastwest;fontSize=11;" vertex="1" parent="1"><mxGeometry x="355" y="390" width="140" height="26" as="geometry"/></mxCell><mxCell id="44" value="loop" style="shape=umlFrame;whiteSpace=wrap;html=1;fontSize=11;" vertex="1" parent="1"><mxGeometry x="80" y="180" width="550" height="250" as="geometry"/></mxCell><mxCell id="45" value="[for word:valid words]" style="text;align=center;fontStyle=0;verticalAlign=middle;spacingLeft=3;spacingRight=3;strokeColor=none;rotatable=0;points=[[0,0.5],[1,0.5]];portConstraint=eastwest;fontSize=11;" vertex="1" parent="1"><mxGeometry x="200" y="330" width="80" height="26" as="geometry"/></mxCell><mxCell id="46" value="[for taken boardTile:board]" style="text;align=center;fontStyle=0;verticalAlign=middle;spacingLeft=3;spacingRight=3;strokeColor=none;rotatable=0;points=[[0,0.5],[1,0.5]];portConstraint=eastwest;fontSize=11;" vertex="1" parent="1"><mxGeometry x="170" y="190" width="80" height="26" as="geometry"/></mxCell><mxCell id="57" value="isValidPlacement()" style="html=1;verticalAlign=bottom;endArrow=block;entryX=0.964;entryY=0.72;rounded=0;entryDx=0;entryDy=0;entryPerimeter=0;" edge="1" parent="1" target="44"><mxGeometry relative="1" as="geometry"><mxPoint x="325" y="360" as="sourcePoint"/><mxPoint x="645" y="360" as="targetPoint"/></mxGeometry></mxCell><mxCell id="58" value=":ScrabbleModel" style="shape=umlLifeline;perimeter=lifelinePerimeter;whiteSpace=wrap;html=1;container=1;collapsible=0;recursiveResize=0;outlineConnect=0;fontSize=11;" vertex="1" parent="1"><mxGeometry x="690" y="60" width="100" height="580" as="geometry"/></mxCell><mxCell id="59" value="handleControllerEvent()" style="html=1;verticalAlign=bottom;endArrow=block;rounded=0;fontSize=11;exitX=1.2;exitY=0.925;exitDx=0;exitDy=0;exitPerimeter=0;" edge="1" parent="1" source="53" target="58"><mxGeometry width="80" relative="1" as="geometry"><mxPoint x="330" y="480" as="sourcePoint"/><mxPoint x="410" y="480" as="targetPoint"/><Array as="points"><mxPoint x="550" y="510"/></Array></mxGeometry></mxCell></root></mxGraphModel></diagram></mxfile>